# xmcd CD database file
#
# Track frame offsets:
#	150
#	19935
#	38480
#	61170
#	80857
#	104325
#	125250
#	146875
#	164790
#	182737
#	204187
#	226892
#
# Disc length: 3338 seconds
#
# Revision: 3
# Processed by: cddbd v1.5PL3 Copyright (c) Steve Scherf et al.
# Submitted via: CDex 1.51
#
DISCID=a20d080c
DTITLE=Various Artist - Music from Set It Off (single)
DYEAR=1900
DGENRE=
TTITLE0=Let It Go (LP edit) - Ray J
TTITLE1=Days Of Our Livez (LP edit clean) - Bone Thugs-n-Harmony
TTITLE2=Temptations
TTITLE3=God Bless The Dead
TTITLE4=Hail Mary
TTITLE5=Me Against The World
TTITLE6=How Do You Want It
TTITLE7=So Many Tears
TTITLE8=Unconditional Love
TTITLE9=Trapped
TTITLE10=Life Goes On
TTITLE11=Hit 'Em Up
EXTD=
EXTT0=
EXTT1=
EXTT2=
EXTT3=
EXTT4=
EXTT5=
EXTT6=
EXTT7=
EXTT8=
EXTT9=
EXTT10=
EXTT11=
PLAYORDER=
